inDegrees=yes
name=ik_Xsens_quaternion
DataType=double
version=3
OpenSimVersion=4.4-2022-07-23-0e9fedc
endheader
time	pelvis_tilt	pelvis_list	pelvis_rotation	pelvis_tx	pelvis_ty	pelvis_tz	hip_flexion_r	hip_adduction_r	hip_rotation_r	knee_angle_r	knee_angle_r_beta	ankle_angle_r	subtalar_angle_r	mtp_angle_r	hip_flexion_l	hip_adduction_l	hip_rotation_l	knee_angle_l	knee_angle_l_beta	ankle_angle_l	subtalar_angle_l	mtp_angle_l	lumbar_extension	lumbar_bending	lumbar_rotation	arm_flex_r	arm_add_r	arm_rot_r	elbow_flex_r	pro_sup_r	wrist_flex_r	wrist_dev_r	arm_flex_l	arm_add_l	arm_rot_l	elbow_flex_l	pro_sup_l	wrist_flex_l	wrist_dev_l
0	59.92783212408845	-46.39149163166822	89.98639386856802	0	0.93	0	33.95523114805761	-10.6029690577649	0	50.62017311029032	0.8834886887040648	-5.390551035247596	0	0	42.7529958929976	29.85260175441822	-39.98913791919026	0.03121992786751216	0.0005448905335232192	-5.390551035247596	0	0	14.13392061498324	-19.71683262740677	19.45991922857369	0	-6.789374602540722	0	68.51210646316022	49.92733954268569	0	5.377260208604984	22.54335663255861	21.48187824994503	-18.19274187172425	0.4908540349666044	49.92733954268569	0	5.377260208604984
0.01666666666666667	60.060780750175	-46.49042069863486	89.98635683862993	0	0.93	0	33.9331580899436	-10.60555873322421	0	50.60064461348505	0.8831478521368477	-5.392497771437719	0	0	42.77027562304646	29.84866874364561	-39.98914099657756	0.03185809769252889	0.0005560286981566372	-5.392497771437719	0	0	14.16697353228191	-19.61744955571755	19.52594403416165	0	-6.779090562358322	0	68.49919965841841	49.94585450970338	0	5.379479922537935	22.64484931854312	21.41246536286758	-18.18706146435403	0.4458728092466356	49.94585450970338	0	5.379479922537935
0.03333333333333333	60.16044103190562	-46.59411358450487	89.98632886886192	0	0.93	0	33.91187553647575	-10.60797078024634	0	50.58152792861897	0.8828142030438683	-5.394289589061347	0	0	42.78144150183457	29.85891090744771	-39.98914905375669	0.03286144252624469	0.000573540369037853	-5.394289589061347	0	0	14.20319458243194	-19.58125802725238	19.59186277212785	0	-6.769062843081548	0	68.48674800456467	49.96323830773949	0	5.381489315230581	22.72747141982481	21.39825150928911	-18.20981426856797	0.4276731219925198	49.96323830773949	0	5.381489315230581
0.05	60.27629679447081	-46.67908728906727	89.98631796682868	0	0.93	0	33.8904383825816	-10.61039806365202	0	50.56224618041931	0.8824776730522438	-5.396092060085068	0	0	42.81084083072874	29.86093711823932	-39.98915720542682	0.03362708216897107	0.0005869033016872213	-5.396092060085068	0	0	14.2409162581148	-19.5635305521414	19.64337301025096	0	-6.758959298337293	0	68.47420556685199	49.98073551101994	0	5.383509557656478	22.80074062508305	21.4042993750026	-18.22930560182994	0.4411210810360606	49.98073551101994	0	5.383509557656478
0.06666666666666667	60.39766092500184	-46.73952737210882	89.98628123039737	0	0.93	0	33.86921804043483	-10.61279803600094	0	50.54313318751733	0.882144088396194	-5.397873395343839	0	0	42.862007557104	29.86093938353229	-39.98914096330896	0.03402397707170964	0.000593830424524392	-5.397873395343839	0	0	14.28194541212552	-19.54734952515524	19.69565184289014	0	-6.748954780694747	0	68.46178962977923	49.99804053304576	0	5.38550467599385	22.87704665138137	21.41218434329716	-18.24924314508714	0.46020739224929	49.99804053304576	0	5.38550467599385
0.08333333333333333	60.51987494922605	-46.78299208637416	89.98624741149258	0	0.93	0	33.84815926197627	-10.61518039982053	0	50.52415125626722	0.8818127911974922	-5.399641650221044	0	0	42.92210597552864	29.86020938011857	-39.98911681542678	0.03425372125504063	0.0005978402169608232	-5.399641650221044	0	0	14.33155870247275	-19.53375559764406	19.75039045911587	0	-6.739028056305492	0	68.44946816734806	50.01521766340496	0	5.387485014451678	22.96195005944865	21.42426372035346	-18.27021487166487	0.472462571551974	50.01521766340496	0	5.387485014451678
0.1	60.67924413289088	-46.80087890209812	89.9861792905095	0	0.93	0	33.8256410097769	-10.61784658286842	0	50.50420307290542	0.8814646297180373	-5.401651531550052	0	0	43.00682133844134	29.84645288665636	-39.98905116509135	0.03447144247810775	0.0006016401691548135	-5.401651531550052	0	0	14.38222525585127	-19.48425699739419	19.81759080132517	0	-6.728568794635222	0	68.43630241543958	50.03423905005104	0	5.3897852229673	23.06537766703392	21.40329609472978	-18.28342657678804	0.4626031881401536	50.03423905005104	0	5.3897852229673
0.1166666666666667	60.85416528344364	-46.80410748038577	89.98608795410259	0	0.93	0	33.80302896238393	-10.62052789485549	0	50.48416440375664	0.8811148889636733	-5.40367377883274	0	0	43.11191260607664	29.84099940659274	-39.98897057165053	0.03422240376604587	0.0005972936236644077	-5.40367377883274	0	0	14.42831404804044	-19.43613300854865	19.87370417772615	0	-6.718071185471572	0	68.42308202543089	50.05336150999391	0	5.392101086799188	23.16028303411974	21.38505752977413	-18.28950282576053	0.4636196785544718	50.05336150999391	0	5.392101086799188
0.1333333333333333	61.03714861474513	-46.80763646705901	89.98601798559262	0	0.93	0	33.78053265545005	-10.62319036173814	0	50.46419324736168	0.8807663265291507	-5.4056804073784	0	0	43.22003044695008	29.83945037299142	-39.98894283508809	0.03350194007816605	0.000584719160169844	-5.4056804073784	0	0	14.47180934402705	-19.38512809646932	19.91940187485694	0	-6.707620949587453	0	68.40992876188173	50.07235783648282	0	5.394396783329412	23.25018270038457	21.36633248904777	-18.2865969129375	0.4724641853952333	50.07235783648282	0	5.394396783329412
0.15	61.20670999618105	-46.80513236963001	89.98607106122951	0	0.93	0	33.75811207515541	-10.62586111738922	0	50.44432104597401	0.8804194911853164	-5.407697461397589	0	0	43.3334395835863	29.83023732919444	-39.98896107859445	0.03324286791210272	0.0005801974978717655	-5.407697461397589	0	0	14.5148601107564	-19.33652391696075	19.97084676587763	0	-6.69722853512117	0	68.39682107302457	50.09138518668129	0	5.396710831768217	23.34064179578841	21.34786835870635	-18.28937007320437	0.47507527611389	50.09138518668129	0	5.396710831768217
0.1666666666666667	61.28691764069416	-46.82027822746164	89.98598361524361	0	0.93	0	33.73780834731249	-10.62817830703295	0	50.42599672781948	0.8800996715003369	-5.409421607860883	0	0	43.433689214105	29.83486213199434	-39.98892252128752	0.0327770018023034	0.0005720666003823099	-5.409421607860883	0	0	14.54991645710605	-19.32671204797529	19.97764882007066	0	-6.68768755856101	0	68.38494246349745	50.10805894985689	0	5.398647780651517	23.39378946302498	21.37120314846276	-18.27794366752299	0.5179254095925647	50.10805894985689	0	5.398647780651517
0.1833333333333333	61.41146586572314	-46.83419242518585	89.98587592497815	0	0.93	0	33.71620869430694	-10.63074993433464	0	50.40680924866695	0.8797647868139674	-5.411363037566519	0	0	43.5210773251658	29.81831845460766	-39.98884131293485	0.03237428272931624	0.0005650378265981045	-5.411363037566519	0	0	14.59820700394092	-19.28467437579744	20.02901289306639	0	-6.677674912774235	0	68.372314383275	50.12638266220519	0	5.400873496861468	23.48654842504346	21.35964316555367	-18.28273722341325	0.5091209449533611	50.12638266220519	0	5.400873496861468
